<?xml version="1.0" standalone="no"?>
<!DOCTYPE svg PUBLIC "-//W3C//DTD SVG 20010904//EN"
 "http://www.w3.org/TR/2001/REC-SVG-20010904/DTD/svg10.dtd">
<svg version="1.0" xmlns="http://www.w3.org/2000/svg"
 width="2048.000000pt" height="2048.000000pt" viewBox="0 0 2048.000000 2048.000000"
 preserveAspectRatio="xMidYMid meet">

<g transform="translate(0.000000,2048.000000) scale(0.100000,-0.100000)"
fill="#000000" stroke="none">
<path d="M9715 20320 c-1405 -76 -2744 -429 -3985 -1050 -1520 -760 -2837
-1907 -3807 -3315 -959 -1391 -1556 -3017 -1723 -4690 -61 -617 -66 -1282 -14
-1895 261 -3106 1966 -5927 4609 -7627 633 -406 1271 -723 1986 -987 843 -309
1789 -513 2712 -582 288 -21 950 -29 1232 -15 1659 85 3215 548 4620 1375
1030 605 1948 1391 2703 2313 1261 1540 2033 3399 2231 5368 39 389 46 532 46
1025 0 474 -7 631 -40 975 -192 1959 -934 3789 -2156 5316 -667 833 -1420
1523 -2312 2118 -1178 785 -2461 1295 -3880 1541 -276 47 -680 96 -1002 121
-183 14 -1015 20 -1220 9z m1155 -3009 c641 -68 1131 -172 1655 -351 362 -125
608 -229 950 -404 693 -354 1295 -800 1850 -1367 797 -816 1396 -1834 1718
-2921 l35 -118 -1639 0 -1639 0 0 -830 0 -830 -1655 0 -1655 0 0 -830 0 -830
-1660 0 -1660 0 0 -825 0 -825 -1655 0 c-1551 0 -1655 -1 -1655 -17 0 -31 -19
0 -83 142 -348 761 -556 1582 -617 2434 -14 188 -14 815 0 1001 53 727 208
1420 465 2075 972 2486 3258 4224 5895 4485 113 11 228 22 255 24 106 8 995
-3 1095 -13z"/>
</g>
</svg>
